{
  "accessors": [
    {
      "bufferView": 2,
      "componentType": 5126,
      "count": 296,
      "max": [
        2.2718210220336914,
        1.1863399744033813,
        2.2458620071411133
      ],
      "min": [
        -2.219902992248535,
        -2.3729424476623535,
        -2.2458620071411133
      ],
      "type": "VEC3"
    },
    {
      "bufferView": 2,
      "byteOffset": 3552,
      "componentType": 5126,
      "count": 296,
      "max": [
        0.9995494484901428,
        0.9178258776664734,
        0.9999507665634155
      ],
      "min": [
        -0.9999407529830933,
        -0.934963047504425,
        -0.9999507665634155
      ],
      "type": "VEC3"
    },
    {
      "bufferView": 3,
      "componentType": 5126,
      "count": 296,
      "max": [
        1.0,
        0.24705882370471954,
        0.0117647061124444,
        1.0
      ],
      "min": [
        0.18431372940540314,
        0.0117647061124444,
        0.0,
        1.0
      ],
      "type": "VEC4"
    },
    {
      "bufferView": 1,
      "componentType": 5126,
      "count": 296,
      "max": [
        1.0,
        1.0
      ],
      "min": [
        0.0,
        0.01000000536441803
      ],
      "type": "VEC2"
    },
    {
      "bufferView": 0,
      "componentType": 5125,
      "count": 1434,
      "type": "SCALAR"
    },
    {
      "bufferView": 2,
      "byteOffset": 7104,
      "componentType": 5126,
      "count": 2279,
      "max": [
        1.402289867401123,
        2.4583563804626465,
        0.1431976556777954
      ],
      "min": [
        -1.1859146356582642,
        1.1863398551940918,
        -0.14319783449172974
      ],
      "type": "VEC3"
    },
    {
      "bufferView": 2,
      "byteOffset": 34452,
      "componentType": 5126,
      "count": 2279,
      "max": [
        0.9996278285980225,
        0.9997983574867249,
        0.9999999403953552
      ],
      "min": [
        -0.9999882578849792,
        -0.9999706149101257,
        -0.9999998807907104
      ],
      "type": "VEC3"
    },
    {
      "bufferView": 3,
      "byteOffset": 4736,
      "componentType": 5126,
      "count": 2279,
      "max": [
        1.0,
        0.29411765933036804,
        0.0313725508749485,
        1.0
      ],
      "min": [
        0.0,
        0.0,
        0.0,
        1.0
      ],
      "type": "VEC4"
    },
    {
      "bufferView": 1,
      "byteOffset": 2368,
      "componentType": 5126,
      "count": 2279,
      "max": [
        1.0,
        1.0
      ],
      "min": [
        0.0,
        0.0
      ],
      "type": "VEC2"
    },
    {
      "bufferView": 0,
      "byteOffset": 5736,
      "componentType": 5125,
      "count": 13236,
      "type": "SCALAR"
    },
    {
      "bufferView": 2,
      "byteOffset": 61800,
      "componentType": 5126,
      "count": 26190,
      "max": [
        2.570096969604492,
        1.6677865982055664,
        2.6650071144104004
      ],
      "min": [
        -2.737546682357788,
        -2.6100616455078125,
        -2.641695499420166
      ],
      "type": "VEC3"
    },
    {
      "bufferView": 2,
      "byteOffset": 376080,
      "componentType": 5126,
      "count": 26190,
      "max": [
        0.999799370765686,
        1.0,
        0.999736487865448
      ],
      "min": [
        -0.9992071390151978,
        -0.9996670484542847,
        -0.9997327923774719
      ],
      "type": "VEC3"
    },
    {
      "bufferView": 3,
      "byteOffset": 41200,
      "componentType": 5126,
      "count": 26190,
      "max": [
        1.0,
        0.32549020648002625,
        0.01568627543747425,
        1.0
      ],
      "min": [
        0.16862745583057404,
        0.007843137718737125,
        0.0,
        1.0
      ],
      "type": "VEC4"
    },
    {
      "bufferView": 1,
      "byteOffset": 20600,
      "componentType": 5126,
      "count": 26190,
      "max": [
        1.0,
        1.0213449001312256
      ],
      "min": [
        0.0,
        0.0
      ],
      "type": "VEC2"
    },
    {
      "bufferView": 0,
      "byteOffset": 58680,
      "componentType": 5125,
      "count": 87210,
      "type": "SCALAR"
    }
  ],
  "asset": {
    "extras": {
      "author": "matty14 (https://sketchfab.com/matty90509)",
      "license": "CC-BY-4.0 (http://creativecommons.org/licenses/by/4.0/)",
      "source": "https://sketchfab.com/3d-models/mera-mera-no-mi-one-piece-4f18cb6ea1024fec8b2efc41f12aa9b7",
      "title": "Mera Mera no Mi - One Piece"
    },
    "generator": "Sketchfab-13.74.0",
    "version": "2.0"
  },
  "bufferViews": [
    {
      "buffer": 0,
      "byteLength": 407520,
      "name": "floatBufferViews",
      "target": 34963
    },
    {
      "buffer": 0,
      "byteLength": 230120,
      "byteOffset": 407520,
      "byteStride": 8,
      "name": "floatBufferViews",
      "target": 34962
    },
    {
      "buffer": 0,
      "byteLength": 690360,
      "byteOffset": 637640,
      "byteStride": 12,
      "name": "floatBufferViews",
      "target": 34962
    },
    {
      "buffer": 0,
      "byteLength": 460240,
      "byteOffset": 1328000,
      "byteStride": 16,
      "name": "floatBufferViews",
      "target": 34962
    }
  ],
  "buffers": [
    {
      "byteLength": 1788240,
      "uri": "scene.bin"
    }
  ],
  "materials": [
    {
      "doubleSided": true,
      "name": "Material.002",
      "pbrMetallicRoughness": {
        "baseColorFactor": [
          0.410939,
          0.0751704,
          0.00865477,
          1.0
        ],
        "metallicFactor": 0.386364,
        "roughnessFactor": 0.436364
      }
    },
    {
      "doubleSided": true,
      "name": "Material.003",
      "pbrMetallicRoughness": {
        "baseColorFactor": [
          0.0648033,
          0.381326,
          0.376262,
          1.0
        ],
        "metallicFactor": 0.613636,
        "roughnessFactor": 0.518182
      }
    },
    {
      "doubleSided": true,
      "name": "Material.001",
      "pbrMetallicRoughness": {
        "metallicFactor": 0.386364,
        "roughnessFactor": 0.436364
      }
    }
  ],
  "meshes": [
    {
      "name": "Object_0",
      "primitives": [
        {
          "attributes": {
            "COLOR_0": 2,
            "NORMAL": 1,
            "POSITION": 0,
            "TEXCOORD_0": 3
          },
          "indices": 4,
          "material": 0,
          "mode": 4
        }
      ]
    },
    {
      "name": "Object_1",
      "primitives": [
        {
          "attributes": {
            "COLOR_0": 7,
            "NORMAL": 6,
            "POSITION": 5,
            "TEXCOORD_0": 8
          },
          "indices": 9,
          "material": 1,
          "mode": 4
        }
      ]
    },
    {
      "name": "Object_2",
      "primitives": [
        {
          "attributes": {
            "COLOR_0": 12,
            "NORMAL": 11,
            "POSITION": 10,
            "TEXCOORD_0": 13
          },
          "indices": 14,
          "material": 2,
          "mode": 4
        }
      ]
    }
  ],
  "nodes": [
    {
      "children": [
        1
      ],
      "matrix": [
        1.0,
        0.0,
        0.0,
        0.0,
        0.0,
        2.220446049250313e-16,
        -1.0,
        0.0,
        0.0,
        1.0,
        2.220446049250313e-16,
        0.0,
        0.0,
        0.0,
        0.0,
        1.0
      ],
      "name": "Sketchfab_model"
    },
    {
      "children": [
        2
      ],
      "name": "root"
    },
    {
      "children": [
        3
      ],
      "matrix": [
        1.0,
        0.0,
        0.0,
        0.0,
        0.0,
        2.220446049250313e-16,
        1.0,
        0.0,
        0.0,
        -1.0,
        2.220446049250313e-16,
        0.0,
        0.0,
        0.0,
        0.0,
        1.0
      ],
      "name": "GLTF_SceneRootNode"
    },
    {
      "children": [
        4,
        5,
        6
      ],
      "name": "Mera Mera no mi_0"
    },
    {
      "mesh": 0,
      "name": "Object_4"
    },
    {
      "mesh": 1,
      "name": "Object_5"
    },
    {
      "mesh": 2,
      "name": "Object_6"
    }
  ],
  "scene": 0,
  "scenes": [
    {
      "name": "Sketchfab_Scene",
      "nodes": [
        0
      ]
    }
  ]
}
